<svg xmlns="http://www.w3.org/2000/svg" viewBox="0 0 1600 900" width="1600" height="900"><defs><linearGradient id="bg" x2="0" y2="1"><stop stop-color="#10121c"/><stop offset="1" stop-color="#090a10"/></linearGradient><linearGradient id="g" x2="1"><stop stop-color="#eed8aa"/><stop offset="1" stop-color="#a98047"/></linearGradient><filter id="glow"><feGaussianBlur stdDeviation="12" result="b"/><feMerge><feMergeNode in="b"/><feMergeNode in="SourceGraphic"/></feMerge></filter></defs><rect width="1600" height="900" fill="url(#bg)"/><text x="800" y="116" fill="#e9dfcc" font-family="Georgia,serif" font-size="42" text-anchor="middle" letter-spacing="5">UNITY AS AN ETHIC OF RELATION</text><text x="800" y="162" fill="#9e96a9" font-family="Arial,sans-serif" font-size="19" text-anchor="middle" letter-spacing="3">A CONCEPTUAL MAP · NOT A FORMULA FOR JUDGING OTHERS</text><circle cx="800" cy="470" r="260" fill="none" stroke="#7b6a4e" stroke-width="2" opacity=".7"/><circle cx="800" cy="470" r="183" fill="#171823" stroke="url(#g)" stroke-width="3" filter="url(#glow)"/><circle cx="800" cy="470" r="124" fill="#252438" stroke="#b8a079" stroke-opacity=".55" stroke-width="1.5"/><text x="800" y="458" fill="#f0dfbc" font-family="Georgia,serif" font-size="30" text-anchor="middle" letter-spacing="3">UNITY</text><text x="800" y="501" fill="#aaa0ae" font-family="Arial,sans-serif" font-size="16" text-anchor="middle" letter-spacing="2">SHARED BEING</text><g fill="#161a27" stroke="#b89760" stroke-width="2"><rect x="158" y="367" width="244" height="104" rx="52"/><rect x="1198" y="367" width="244" height="104" rx="52"/><rect x="678" y="230" width="244" height="90" rx="45"/><rect x="678" y="650" width="244" height="90" rx="45"/></g><g fill="#e8dcc5" font-family="Georgia,serif" font-size="23" text-anchor="middle" letter-spacing="2"><text x="280" y="429">FREE WILL</text><text x="1320" y="429">OTHER-SELF</text><text x="800" y="285">DISTORTION</text><text x="800" y="705">CHOICE</text></g><g stroke="url(#g)" fill="none" stroke-width="2.5"><path d="M402 419H553"/><path d="M1047 419H1198"/><path d="M800 320V348"/><path d="M800 592V650"/></g><g fill="#d9c59e"><path d="M543 411l14 8-14 8z"/><path d="M1039 411l14 8-14 8z"/><path d="M792 342l8 14 8-14z"/><path d="M792 634l8 14 8-14z"/></g><text x="800" y="805" fill="#a99e8d" font-family="Georgia,serif" font-size="22" text-anchor="middle">Unity matters where it changes how difference is treated.</text><text x="800" y="846" fill="#8d8493" font-family="Arial,sans-serif" font-size="15" text-anchor="middle" letter-spacing="3">FREE WILL  ·  SERVICE  ·  HUMILITY  ·  RELATION</text></svg>