<svg xmlns="http://www.w3.org/2000/svg" viewBox="0 0 1200 630" width="1200" height="630">
  <defs>
    <radialGradient id="bg10" cx="50%" cy="50%" r="70%">
      <stop offset="0%" stop-color="#0f0a1a"/>
      <stop offset="100%" stop-color="#0A0A0F"/>
    </radialGradient>
  </defs>
  <rect width="1200" height="630" fill="url(#bg10)"/>
  <g transform="translate(600,315)" opacity="0.3">
    <polygon points="0,-200 -180,100 180,100" fill="none" stroke="#C9A84C" stroke-width="0.5"/>
    <polygon points="0,150 -120,-50 120,-50" fill="none" stroke="#7B5EA7" stroke-width="0.5"/>
    <g font-family="serif" font-size="9" fill="#C9A84C" opacity="0.6" text-anchor="middle">
      <circle cx="0" cy="-200" r="5"/>
      <text x="0" y="-215">I</text>
      <circle cx="-80" cy="-70" r="5"/>
      <text x="-80" y="-85">II</text>
      <circle cx="80" cy="-70" r="5"/>
      <text x="80" y="-85">III</text>
      <circle cx="-130" cy="60" r="5"/>
      <text x="-130" y="45">IV</text>
      <circle cx="0" cy="60" r="5"/>
      <text x="0" y="45">V</text>
      <circle cx="130" cy="60" r="5"/>
      <text x="130" y="45">VI</text>
      <circle cx="0" cy="150" r="6"/>
      <text x="0" y="170">VII</text>
    </g>
    <g opacity="0.5">
      <circle r="30" fill="none" stroke="#C9A84C" stroke-width="1"/>
      <circle r="15" fill="none" stroke="#C9A84C" stroke-width="0.5"/>
      <circle r="5" fill="#C9A84C" opacity="0.5"/>
    </g>
  </g>
  <text x="600" y="50" text-anchor="middle" font-family="serif" font-size="11" fill="#C9A84C" opacity="0.7" letter-spacing="4">✦ THE KYBALION ✦</text>
  <text x="600" y="585" text-anchor="middle" font-family="serif" font-size="9" fill="#9B93AB" opacity="0.4" letter-spacing="2">Seven Hermetic Principles · Mentalism · Correspondence · Vibration</text>
</svg>
